<svg width="55" height="55" viewBox="0 0 55 55" fill="none" xmlns="http://www.w3.org/2000/svg">
<rect width="55" height="55" rx="2" fill="black"/>
<g clip-path="url(#clip0_4_445)">
<path d="M27.0826 21.3662C23.4789 21.3662 20.5721 24.2912 20.5721 27.9174C20.5721 31.5436 23.4789 34.4686 27.0826 34.4686C30.6863 34.4686 33.5931 31.5436 33.5931 27.9174C33.5931 24.2912 30.6863 21.3662 27.0826 21.3662ZM27.0826 32.1765C24.7538 32.1765 22.8499 30.2665 22.8499 27.9174C22.8499 25.5683 24.7481 23.6583 27.0826 23.6583C29.4171 23.6583 31.3153 25.5683 31.3153 27.9174C31.3153 30.2665 29.4114 32.1765 27.0826 32.1765ZM35.3779 21.0982C35.3779 21.9478 34.698 22.6263 33.8594 22.6263C33.0151 22.6263 32.3408 21.9421 32.3408 21.0982C32.3408 20.2544 33.0208 19.5702 33.8594 19.5702C34.698 19.5702 35.3779 20.2544 35.3779 21.0982ZM39.6899 22.6491C39.5936 20.6022 39.129 18.7891 37.6387 17.2953C36.1542 15.8014 34.3523 15.3339 32.3182 15.2313C30.2217 15.1115 23.9378 15.1115 21.8414 15.2313C19.8128 15.3282 18.011 15.7957 16.5208 17.2896C15.0306 18.7834 14.5716 20.5965 14.4696 22.6434C14.3506 24.753 14.3506 31.0761 14.4696 33.1857C14.5659 35.2326 15.0306 37.0457 16.5208 38.5395C18.011 40.0333 19.8072 40.5009 21.8414 40.6035C23.9378 40.7232 30.2217 40.7232 32.3182 40.6035C34.3523 40.5066 36.1542 40.039 37.6387 38.5395C39.1233 37.0457 39.5879 35.2326 39.6899 33.1857C39.8089 31.0761 39.8089 24.7587 39.6899 22.6491ZM36.9815 35.4492C36.5395 36.5667 35.6839 37.4277 34.5677 37.8781C32.8961 38.5452 28.9298 38.3913 27.0826 38.3913C25.2354 38.3913 21.2634 38.5395 19.5975 37.8781C18.487 37.4334 17.6314 36.5725 17.1837 35.4492C16.5208 33.7673 16.6738 29.7761 16.6738 27.9174C16.6738 26.0587 16.5264 22.0618 17.1837 20.3855C17.6257 19.268 18.4813 18.4071 19.5975 17.9567C21.2691 17.2896 25.2354 17.4435 27.0826 17.4435C28.9298 17.4435 32.9018 17.2953 34.5677 17.9567C35.6782 18.4014 36.5338 19.2623 36.9815 20.3855C37.6444 22.0675 37.4914 26.0587 37.4914 27.9174C37.4914 29.7761 37.6444 33.773 36.9815 35.4492Z" fill="white"/>
</g>
<defs>
<clipPath id="clip0_4_445">
<rect width="25.3846" height="25.3846" fill="white" transform="translate(14.3846 15.2308)"/>
</clipPath>
</defs>
</svg>
