<svg width="622" height="634" viewBox="0 0 622 634" fill="none" xmlns="http://www.w3.org/2000/svg">
<path d="M456.069 64.8104C461.602 67.1359 466.334 69.8366 469.559 73.6765C473.695 78.6116 475.757 85.3938 475.715 93.6904C475.71 101.791 474.088 111.373 470.572 123.582L470.332 124.398L342.854 354.678L319.716 314.251L320.064 314.037L319.711 314.234C262.954 213.081 233.287 113.329 230.166 53.5047C224.128 52.7817 218.085 52.3716 212.84 52.3731C199.229 52.3822 188.21 54.4525 180.511 59.2251L180.459 59.2615C173.226 63.6787 168.742 71.1808 168.67 81.5189V81.5827L168.675 81.6465L168.683 82.0172C168.683 94.5865 174.579 111.175 187.398 133.633L187.46 133.745C216.629 183.607 323.828 349.23 333.671 364.441L334.848 366.262V574.598L334.591 575.549C329.574 593.884 323.797 606.907 315.469 616.373C308.643 624.135 299.921 629.342 288.992 633.093H445.682C434.745 629.34 426.039 624.129 419.203 616.364C410.884 606.911 405.091 593.886 400.09 575.545L399.831 574.603V377.918L543.673 123.176L544.132 122.634C572.4 88.5471 593.093 73.3196 622 64.8104H456.069Z" fill="#F1F1F1"/>
<path d="M320.182 420.589C299.858 399.43 279.62 376.892 258.427 356.39C222.66 321.774 184.059 293.438 138.03 287.622L123.176 285.719L210.326 198.903C208.014 195.221 205.827 191.721 203.626 188.203L111.095 280.378V59.0777L111.335 58.1648C114.493 46.086 118.037 36.5621 122.398 28.5708L122.532 28.3203L122.746 28.0027L124.063 26.0356L124.174 25.8564L124.189 25.8655C125.761 23.1557 127.603 20.9213 129.493 18.6702L129.485 18.6611L129.885 18.0884L130.954 16.3174L131.538 15.7204C138.424 8.61017 146.672 3.82239 157.191 0.128235H0C11.055 4.00006 19.8513 9.22992 26.7383 17.0571C35.0774 26.5172 40.8464 39.5499 45.859 58.0994L46.1111 59.0473V509.934L45.8514 510.867C40.8388 529.202 35.0607 542.226 26.7307 551.691C19.9105 559.442 11.2084 564.647 0.276438 568.411H157.98C149.502 565.609 142.375 561.988 136.585 556.958L135.185 556.395L134.229 555.54C130.666 552.347 127.228 548.082 124.418 543.04L124.395 543.055L124.016 542.477L122.611 540.733L122.292 540.142C118.002 532.193 114.481 522.438 111.347 510.82L111.095 509.889V295.686L119.02 296.327C147.154 298.622 169.938 315.132 190.381 339.012C223.05 377.201 250.053 433.868 284.075 481.364C295.201 496.889 307.166 511.215 320.182 523.781V420.589Z" fill="#F1F1F1"/>
</svg>
