<svg width="169" height="65" viewBox="0 0 169 65" fill="none" xmlns="http://www.w3.org/2000/svg">
<path d="M32.3735 8.50694L25.9249 14.937C26.0432 15.3681 26.1942 15.8285 26.3273 16.2735L32.0679 10.5501C33.3742 8.96557 35.1526 8.12688 35.6628 7.84803C42.0262 4.12552 40.8597 1.52588e-05 40.8597 1.52588e-05C40.8597 1.52588e-05 39.9493 0.86484 39.4953 1.0317C38.7418 1.30827 37.8284 1.45142 37.0718 1.7204C35.9062 2.1348 34.7641 2.58628 33.9053 3.54411C32.9202 4.64311 32.1198 7.62038 32.2501 7.77311C33.7032 6.32155 35.1286 4.83717 36.9511 3.84576C34.9574 5.49745 32.3987 8.48126 32.3735 8.50694Z" fill="#D5B76E"/>
<path d="M48.5388 51.7248C47.6389 51.841 46.6488 51.907 45.7478 51.9073H45.6893C44.1967 51.9073 42.7863 51.5842 41.4321 51.042V58.4832C41.5837 58.4919 41.7224 58.525 41.8767 58.5288H41.8771H42.2384C45.2685 58.5245 47.3631 57.5513 48.7088 56.1474C50.0141 54.7842 50.6067 53.0054 50.6457 51.2804L50.6134 51.2766C50.0457 51.4725 49.347 51.6181 48.5388 51.7248Z" fill="#D5B76E"/>
<path d="M32.0046 43.7401C29.9731 41.6232 27.9501 39.3684 25.8317 37.3173C22.2566 33.8542 18.3981 31.0193 13.7971 30.4375L12.3123 30.2471L21.0237 21.5616C20.7926 21.1932 20.574 20.8431 20.354 20.4912L11.1048 29.7128V7.57288L11.1288 7.48155C11.4445 6.27313 11.7987 5.32032 12.2346 4.52084L12.248 4.49577L12.2694 4.46401L12.401 4.26721L12.4121 4.24928L12.4136 4.25019C12.5708 3.97909 12.7549 3.75555 12.9438 3.53034L12.9431 3.52943L12.983 3.47214L13.0899 3.29495L13.1482 3.23523C13.8366 2.52389 14.661 2.0449 15.7125 1.67532H0C1.10503 2.06268 1.98429 2.58589 2.67269 3.36896C3.50625 4.31539 4.08291 5.61924 4.58395 7.47501L4.60916 7.56984V52.6786L4.58319 52.7719C4.08215 54.6062 3.50458 55.9092 2.67193 56.8561C1.99021 57.6315 1.12037 58.1523 0.0276321 58.5289H15.7913C14.9439 58.2485 14.2315 57.8862 13.6527 57.3831L13.5127 57.3267L13.4172 57.2411C13.061 56.9217 12.7174 56.495 12.4365 55.9906L12.4343 55.9921L12.3963 55.9342L12.2559 55.7598L12.224 55.7007C11.7952 54.9054 11.4433 53.9295 11.13 52.7672L11.1048 52.674V31.2443L11.8969 31.3084C14.7092 31.538 16.9866 33.1897 19.03 35.5787C22.2956 39.3994 24.9947 45.0685 28.3954 49.8203C29.5076 51.3735 30.7036 52.8067 32.0046 54.0639V43.7401Z" fill="#D5B76E"/>
<path d="M45.5876 8.14645C46.1407 8.3791 46.6136 8.6493 46.936 9.03346C47.3494 9.52719 47.5556 10.2057 47.5514 11.0357C47.5509 11.8462 47.3887 12.8047 47.0373 14.0262L47.0133 14.1078L34.2709 37.1461L31.9581 33.1016L31.9928 33.0802L31.9576 33.0999C26.2843 22.9801 23.3188 13.0005 23.0068 7.01538C22.4033 6.94305 21.7993 6.90202 21.275 6.90217C19.9145 6.90308 18.8131 7.11021 18.0435 7.58768L18.0383 7.59132C17.3153 8.03323 16.8671 8.78378 16.8599 9.81805V9.82443L16.8604 9.83081L16.8611 9.86789C16.8611 11.1254 17.4505 12.785 18.7319 15.0318L18.7381 15.043C21.6537 20.0314 32.3691 36.601 33.353 38.1228L33.4706 38.305V59.1479L33.445 59.243C32.9435 61.0774 32.366 62.3801 31.5336 63.3272C30.8512 64.1037 29.9794 64.6246 28.887 65H44.5493C43.4561 64.6245 42.5858 64.1031 41.9026 63.3263C41.071 62.3806 40.4919 61.0775 39.9921 59.2426L39.9661 59.1483V39.4712L54.3443 13.9856L54.3902 13.9314C57.2157 10.5212 59.2841 8.99775 62.1737 8.14645H45.5876Z" fill="#D5B76E"/>
<path d="M85.4416 29.6847L78.0395 20.6131V29.6847H73.959V9.3243H78.0395V18.4543L85.4416 9.3243H90.3672L81.9733 19.4168L90.6007 29.6847H85.4416Z" fill="black"/>
<path d="M100.86 12.6202V17.7245H107.709V20.9629H100.86V26.3594H108.583V29.6847H96.7792V9.29497H108.583V12.6202H100.86Z" fill="black"/>
<path d="M134.056 9.32424L126.594 29.6846H121.64L114.178 9.32424H118.55L124.146 25.5137L129.712 9.32424H134.056Z" fill="black"/>
<path d="M144.082 29.6847H140.002V9.32429H144.082V29.6847Z" fill="black"/>
<path d="M169 29.6847H164.92L155.681 15.7125V29.6847H151.601V9.29497H155.681L164.92 23.2963V9.29497H169V29.6847Z" fill="black"/>
<path d="M91.8251 36.4158L84.9469 49.6875V56.7762H80.8664V49.6875L73.959 36.4158H78.5642L82.9359 45.721L87.2782 36.4158H91.8251Z" fill="black"/>
<path d="M101.764 39.7118V44.8161H108.613V48.0544H101.764V53.4509H109.487V56.7762H97.6834V36.3865H109.487V39.7118H101.764Z" fill="black"/>
</svg>
