<svg width="55" height="55" viewBox="0 0 55 55" fill="none" xmlns="http://www.w3.org/2000/svg">
<rect width="55" height="55" rx="2" fill="black"/>
<g clip-path="url(#clip0_4_446)">
<path d="M16.9231 19.2822C16.9231 18.5984 17.1613 18.0343 17.6377 17.5899C18.1142 17.1455 18.7335 16.9232 19.4958 16.9232C20.2445 16.9232 20.8503 17.142 21.3131 17.5797C21.7895 18.0309 22.0278 18.619 22.0278 19.3438C22.0278 20.0002 21.7964 20.5472 21.3335 20.9848C20.8571 21.4361 20.2309 21.6617 19.455 21.6617H19.4346C18.6859 21.6617 18.0801 21.4361 17.6173 20.9848C17.1545 20.5335 16.9231 19.966 16.9231 19.2822ZM17.1885 37.2309V23.5284H21.7215V37.2309H17.1885ZM24.233 37.2309H28.766V29.5796C28.766 29.101 28.8204 28.7318 28.9293 28.4719C29.1199 28.007 29.4091 27.6138 29.7971 27.2925C30.1851 26.9711 30.6717 26.8104 31.257 26.8104C32.7817 26.8104 33.5439 27.8429 33.5439 29.9078V37.2309H38.0769V29.3745C38.0769 27.3506 37.6005 25.8155 36.6476 24.7694C35.6947 23.7232 34.4356 23.2002 32.8701 23.2002C31.1141 23.2002 29.7461 23.9591 28.766 25.4771V25.5181H28.7455L28.766 25.4771V23.5284H24.233C24.2602 23.966 24.2738 25.3266 24.2738 27.6104C24.2738 29.8942 24.2602 33.101 24.233 37.2309Z" fill="white"/>
</g>
<defs>
<clipPath id="clip0_4_446">
<rect width="21.1538" height="20.3077" fill="white" transform="translate(16.9231 16.9231)"/>
</clipPath>
</defs>
</svg>
