<svg width="55" height="55" viewBox="0 0 55 55" fill="none" xmlns="http://www.w3.org/2000/svg">
<rect width="55" height="55" rx="2" fill="black"/>
<g clip-path="url(#clip0_26_256)">
<path d="M38 25.2495C35.9363 25.2547 33.9232 24.5843 32.2451 23.333V32.0596C32.2446 33.6758 31.7703 35.2534 30.8858 36.5813C30.0013 37.9092 28.7487 38.9242 27.2954 39.4905C25.8422 40.0568 24.2576 40.1475 22.7535 39.7504C21.2495 39.3533 19.8977 38.4873 18.8789 37.2683C17.86 36.0493 17.2227 34.5354 17.0522 32.9289C16.8817 31.3225 17.1861 29.7 17.9247 28.2786C18.6632 26.8572 19.8008 25.7046 21.1852 24.9748C22.5696 24.245 24.135 23.9729 25.6719 24.1948V28.584C24.9686 28.3535 24.2134 28.3605 23.5141 28.6038C22.8148 28.8471 22.2072 29.3144 21.7781 29.9389C21.349 30.5634 21.1202 31.3131 21.1246 32.0811C21.1289 32.8491 21.3661 33.596 21.8023 34.2152C22.2384 34.8343 22.8513 35.2941 23.5532 35.5288C24.2552 35.7636 25.0105 35.7613 25.7111 35.5222C26.4117 35.2832 27.0219 34.8196 27.4546 34.1978C27.8872 33.5759 28.1202 32.8276 28.1201 32.0596V15H32.2451C32.2423 15.3629 32.2715 15.7252 32.3323 16.0825C32.4757 16.8801 32.7737 17.6389 33.2082 18.3124C33.6427 18.9859 34.2046 19.56 34.8594 19.9995C35.7909 20.6412 36.8832 20.9832 38 20.9829V25.2495Z" fill="white"/>
</g>
<defs>
<clipPath id="clip0_26_256">
<rect width="21" height="25" fill="white" transform="translate(17 15)"/>
</clipPath>
</defs>
</svg>
