<svg width="27" height="30" viewBox="0 0 27 30" fill="none" xmlns="http://www.w3.org/2000/svg">
<path d="M3.29167 29.625C2.48958 29.625 1.80295 29.3394 1.23177 28.7683C0.66059 28.1971 0.375 27.5105 0.375 26.7084V6.29171C0.375 5.48962 0.66059 4.80299 1.23177 4.23181C1.80295 3.66063 2.48958 3.37504 3.29167 3.37504H9.41667C9.75694 2.50004 10.2917 1.79518 11.0208 1.26046C11.75 0.725735 12.5764 0.458374 13.5 0.458374C14.4236 0.458374 15.25 0.725735 15.9792 1.26046C16.7083 1.79518 17.2431 2.50004 17.5833 3.37504H23.7083C24.5104 3.37504 25.1971 3.66063 25.7682 4.23181C26.3394 4.80299 26.625 5.48962 26.625 6.29171V26.7084C26.625 27.5105 26.3394 28.1971 25.7682 28.7683C25.1971 29.3394 24.5104 29.625 23.7083 29.625H3.29167ZM13.5 5.19796C13.816 5.19796 14.0773 5.09466 14.2839 4.88806C14.4905 4.68146 14.5938 4.42018 14.5938 4.10421C14.5938 3.78823 14.4905 3.52695 14.2839 3.32035C14.0773 3.11376 13.816 3.01046 13.5 3.01046C13.184 3.01046 12.9227 3.11376 12.7161 3.32035C12.5096 3.52695 12.4062 3.78823 12.4062 4.10421C12.4062 4.42018 12.5096 4.68146 12.7161 4.88806C12.9227 5.09466 13.184 5.19796 13.5 5.19796ZM3.29167 25.0313C4.60417 23.7431 6.12934 22.7283 7.86719 21.987C9.60504 21.2457 11.4826 20.875 13.5 20.875C15.5174 20.875 17.395 21.2457 19.1328 21.987C20.8707 22.7283 22.3958 23.7431 23.7083 25.0313V6.29171H3.29167V25.0313ZM13.5 17.9584C14.9097 17.9584 16.1128 17.4601 17.1094 16.4636C18.1059 15.4671 18.6042 14.2639 18.6042 12.8542C18.6042 11.4445 18.1059 10.2414 17.1094 9.24483C16.1128 8.2483 14.9097 7.75004 13.5 7.75004C12.0903 7.75004 10.8872 8.2483 9.89062 9.24483C8.8941 10.2414 8.39583 11.4445 8.39583 12.8542C8.39583 14.2639 8.8941 15.4671 9.89062 16.4636C10.8872 17.4601 12.0903 17.9584 13.5 17.9584ZM6.20833 26.7084H20.7917V26.3438C19.7708 25.4931 18.6406 24.8551 17.401 24.4297C16.1615 24.0044 14.8611 23.7917 13.5 23.7917C12.1389 23.7917 10.8385 24.0044 9.59896 24.4297C8.35938 24.8551 7.22917 25.4931 6.20833 26.3438V26.7084ZM13.5 15.0417C12.8924 15.0417 12.3759 14.829 11.9505 14.4037C11.5252 13.9783 11.3125 13.4618 11.3125 12.8542C11.3125 12.2466 11.5252 11.7301 11.9505 11.3047C12.3759 10.8794 12.8924 10.6667 13.5 10.6667C14.1076 10.6667 14.6241 10.8794 15.0495 11.3047C15.4748 11.7301 15.6875 12.2466 15.6875 12.8542C15.6875 13.4618 15.4748 13.9783 15.0495 14.4037C14.6241 14.829 14.1076 15.0417 13.5 15.0417Z" fill="#D5B76E"/>
</svg>
