<svg width="27" height="27" viewBox="0 0 27 27" fill="none" xmlns="http://www.w3.org/2000/svg">
<path d="M3.29167 26.625C2.48958 26.625 1.80295 26.3394 1.23177 25.7682C0.66059 25.1971 0.375 24.5104 0.375 23.7083V3.29167C0.375 2.48958 0.66059 1.80295 1.23177 1.23177C1.80295 0.66059 2.48958 0.375 3.29167 0.375H16.4167V3.29167H3.29167V23.7083H23.7083V10.5833H26.625V23.7083C26.625 24.5104 26.3394 25.1971 25.7682 25.7682C25.1971 26.3394 24.5104 26.625 23.7083 26.625H3.29167ZM6.20833 20.7917H9.125V10.5833H6.20833V20.7917ZM12.0417 20.7917H14.9583V6.20833H12.0417V20.7917ZM17.875 20.7917H20.7917V14.9583H17.875V20.7917ZM20.7917 9.125V6.20833H17.875V3.29167H20.7917V0.375H23.7083V3.29167H26.625V6.20833H23.7083V9.125H20.7917Z" fill="#D5B76E"/>
</svg>
