<svg width="23" height="31" viewBox="0 0 23 31" fill="none" xmlns="http://www.w3.org/2000/svg">
<path d="M5.20825 30.0833V16.7395C3.96867 16.3993 2.92961 15.7187 2.09106 14.6979C1.25252 13.677 0.833252 12.4861 0.833252 11.125V0.916626H3.74992V11.125H5.20825V0.916626H8.12492V11.125H9.58325V0.916626H12.4999V11.125C12.4999 12.4861 12.0806 13.677 11.2421 14.6979C10.4036 15.7187 9.3645 16.3993 8.12492 16.7395V30.0833H5.20825ZM19.7916 30.0833V18.4166H15.4166V8.20829C15.4166 6.19093 16.1275 4.47131 17.5494 3.04944C18.9713 1.62756 20.6909 0.916626 22.7083 0.916626V30.0833H19.7916Z" fill="#D5B76E"/>
</svg>
