<svg width="31" height="31" viewBox="0 0 31 31" fill="none" xmlns="http://www.w3.org/2000/svg">
<path d="M28.1143 11.6718L26.0727 9.63011L27.1664 8.4999L22.4998 3.83323L21.3695 4.92698L19.2914 2.84886L20.3852 1.71865C20.9442 1.15962 21.6369 0.886184 22.4633 0.898337C23.2897 0.91049 23.9824 1.19608 24.5414 1.75511L29.2445 6.45823C29.8036 7.01726 30.0831 7.70389 30.0831 8.51813C30.0831 9.33237 29.8036 10.019 29.2445 10.578L28.1143 11.6718ZM10.6143 29.2082C10.0553 29.7673 9.36868 30.0468 8.55444 30.0468C7.74021 30.0468 7.05358 29.7673 6.49455 29.2082L1.79142 24.5051C1.23239 23.9461 0.952881 23.2594 0.952881 22.4452C0.952881 21.631 1.23239 20.9443 1.79142 20.3853L2.88517 19.2916L4.9633 21.3697L3.83309 22.4634L8.53621 27.1666L9.62996 26.0364L11.7081 28.1145L10.6143 29.2082ZM25.0883 16.9582L27.1664 14.8801L16.1195 3.83323L14.0414 5.91136L25.0883 16.9582ZM14.88 27.1666L16.9581 25.052L5.94767 14.0416L3.83309 16.1197L14.88 27.1666ZM14.6612 18.6353L18.6716 14.6614L16.3383 12.328L12.3643 16.3384L14.6612 18.6353ZM16.9581 29.2082C16.3991 29.7673 15.7064 30.0468 14.88 30.0468C14.0536 30.0468 13.3609 29.7673 12.8018 29.2082L1.79142 18.1978C1.23239 17.6388 0.952881 16.9461 0.952881 16.1197C0.952881 15.2933 1.23239 14.6006 1.79142 14.0416L3.86955 11.9634C4.42858 11.4044 5.11521 11.1249 5.92944 11.1249C6.74368 11.1249 7.43031 11.4044 7.98934 11.9634L10.2862 14.2603L14.2966 10.2499L11.9998 7.98948C11.4407 7.43046 11.1612 6.73775 11.1612 5.91136C11.1612 5.08497 11.4407 4.39226 11.9998 3.83323L14.0779 1.75511C14.6369 1.19608 15.3235 0.916566 16.1378 0.916566C16.952 0.916566 17.6386 1.19608 18.1977 1.75511L29.2445 12.802C29.8036 13.361 30.0831 14.0476 30.0831 14.8619C30.0831 15.6761 29.8036 16.3627 29.2445 16.9218L27.1664 18.9999C26.6074 19.5589 25.9147 19.8384 25.0883 19.8384C24.2619 19.8384 23.5692 19.5589 23.0102 18.9999L20.7498 16.703L16.7393 20.7134L19.0362 23.0103C19.5952 23.5693 19.8748 24.256 19.8748 25.0702C19.8748 25.8844 19.5952 26.5711 19.0362 27.1301L16.9581 29.2082Z" fill="#D5B76E"/>
</svg>
