<svg width="33" height="28" viewBox="0 0 33 28" fill="none" xmlns="http://www.w3.org/2000/svg">
<path d="M16.5 27.0834L15.7709 12.5L10.6667 11.0417H0.458374V8.12504H9.20837L19.4167 0.833374L21.3125 3.05733L15.2605 7.39587H19.4167L30.7917 0.833374L32.5417 2.87504L20.1459 12.5L19.4167 27.0834H16.5ZM7.75004 6.66671C6.94796 6.66671 6.26133 6.38112 5.69014 5.80994C5.11896 5.23876 4.83337 4.55212 4.83337 3.75004C4.83337 2.94796 5.11896 2.26133 5.69014 1.69014C6.26133 1.11896 6.94796 0.833374 7.75004 0.833374C8.55212 0.833374 9.23876 1.11896 9.80994 1.69014C10.3811 2.26133 10.6667 2.94796 10.6667 3.75004C10.6667 4.55212 10.3811 5.23876 9.80994 5.80994C9.23876 6.38112 8.55212 6.66671 7.75004 6.66671Z" fill="#D5B76E"/>
</svg>
