<svg width="31" height="31" viewBox="0 0 31 31" fill="none" xmlns="http://www.w3.org/2000/svg">
<path d="M20.6041 14.0417C21.2118 14.0417 21.7283 13.8291 22.1536 13.4037C22.579 12.9784 22.7916 12.4619 22.7916 11.8542C22.7916 11.2466 22.579 10.7301 22.1536 10.3048C21.7283 9.87942 21.2118 9.66675 20.6041 9.66675C19.9965 9.66675 19.48 9.87942 19.0546 10.3048C18.6293 10.7301 18.4166 11.2466 18.4166 11.8542C18.4166 12.4619 18.6293 12.9784 19.0546 13.4037C19.48 13.8291 19.9965 14.0417 20.6041 14.0417ZM10.3958 14.0417C11.0034 14.0417 11.5199 13.8291 11.9453 13.4037C12.3706 12.9784 12.5833 12.4619 12.5833 11.8542C12.5833 11.2466 12.3706 10.7301 11.9453 10.3048C11.5199 9.87942 11.0034 9.66675 10.3958 9.66675C9.78815 9.66675 9.27166 9.87942 8.84631 10.3048C8.42097 10.7301 8.20829 11.2466 8.20829 11.8542C8.20829 12.4619 8.42097 12.9784 8.84631 13.4037C9.27166 13.8291 9.78815 14.0417 10.3958 14.0417ZM15.5 23.5209C17.1527 23.5209 18.6536 23.053 20.0026 22.1173C21.3515 21.1815 22.3298 19.948 22.9375 18.4167H8.06246C8.6701 19.948 9.6484 21.1815 10.9974 22.1173C12.3463 23.053 13.8472 23.5209 15.5 23.5209ZM15.5 30.0834C13.4826 30.0834 11.5868 29.7006 9.81246 28.935C8.03815 28.1693 6.49475 27.1303 5.18225 25.8178C3.86975 24.5053 2.83069 22.9619 2.06506 21.1876C1.29944 19.4133 0.916626 17.5174 0.916626 15.5001C0.916626 13.4827 1.29944 11.5869 2.06506 9.81258C2.83069 8.03828 3.86975 6.49487 5.18225 5.18237C6.49475 3.86987 8.03815 2.83081 9.81246 2.06519C11.5868 1.29956 13.4826 0.916748 15.5 0.916748C17.5173 0.916748 19.4132 1.29956 21.1875 2.06519C22.9618 2.83081 24.5052 3.86987 25.8177 5.18237C27.1302 6.49487 28.1692 8.03828 28.9349 9.81258C29.7005 11.5869 30.0833 13.4827 30.0833 15.5001C30.0833 17.5174 29.7005 19.4133 28.9349 21.1876C28.1692 22.9619 27.1302 24.5053 25.8177 25.8178C24.5052 27.1303 22.9618 28.1693 21.1875 28.935C19.4132 29.7006 17.5173 30.0834 15.5 30.0834ZM15.5 27.1667C18.7569 27.1667 21.5156 26.0365 23.776 23.7761C26.0364 21.5157 27.1666 18.757 27.1666 15.5001C27.1666 12.2431 26.0364 9.48446 23.776 7.22404C21.5156 4.96362 18.7569 3.83341 15.5 3.83341C12.243 3.83341 9.48433 4.96362 7.22392 7.22404C4.9635 9.48446 3.83329 12.2431 3.83329 15.5001C3.83329 18.757 4.9635 21.5157 7.22392 23.7761C9.48433 26.0365 12.243 27.1667 15.5 27.1667Z" fill="#D5B76E"/>
</svg>
