<svg width="31" height="19" viewBox="0 0 31 19" fill="none" xmlns="http://www.w3.org/2000/svg">
<path d="M2.95841 18.25L0.916748 16.2083L8.64591 8.47917C9.49661 7.62847 10.5296 7.20313 11.7449 7.20313C12.9602 7.20313 13.9931 7.62847 14.8438 8.47917L16.5209 10.1563C16.8126 10.4479 17.1589 10.5938 17.56 10.5938C17.961 10.5938 18.3074 10.4479 18.599 10.1563L25.0886 3.66667H21.3334V0.75H30.0834V9.5H27.1667V5.74479L20.6407 12.2344C19.79 13.0851 18.757 13.5104 17.5417 13.5104C16.3265 13.5104 15.2935 13.0851 14.4428 12.2344L12.7292 10.5208C12.4619 10.2535 12.1216 10.1198 11.7084 10.1198C11.2952 10.1198 10.9549 10.2535 10.6876 10.5208L2.95841 18.25Z" fill="black"/>
</svg>
