<svg width="25" height="27" viewBox="0 0 25 27" fill="none" xmlns="http://www.w3.org/2000/svg">
<path d="M3.75008 23.7083H21.2501L19.172 9.125H5.82821L3.75008 23.7083ZM12.5001 6.20833C12.9133 6.20833 13.2596 6.06858 13.5391 5.78906C13.8187 5.50955 13.9584 5.16319 13.9584 4.75C13.9584 4.33681 13.8187 3.99045 13.5391 3.71094C13.2596 3.43142 12.9133 3.29167 12.5001 3.29167C12.0869 3.29167 11.7405 3.43142 11.461 3.71094C11.1815 3.99045 11.0417 4.33681 11.0417 4.75C11.0417 5.16319 11.1815 5.50955 11.461 5.78906C11.7405 6.06858 12.0869 6.20833 12.5001 6.20833ZM16.6199 6.20833H19.172C19.9011 6.20833 20.5331 6.45139 21.0678 6.9375C21.6025 7.42361 21.9306 8.0191 22.0522 8.72396L24.1303 23.3073C24.2518 24.1823 24.027 24.954 23.4558 25.6224C22.8846 26.2908 22.1494 26.625 21.2501 26.625H3.75008C2.85077 26.625 2.11553 26.2908 1.54435 25.6224C0.97317 24.954 0.748344 24.1823 0.869872 23.3073L2.948 8.72396C3.06952 8.0191 3.39765 7.42361 3.93237 6.9375C4.46709 6.45139 5.09904 6.20833 5.82821 6.20833H8.38029C8.30737 5.96528 8.24661 5.7283 8.198 5.4974C8.14938 5.26649 8.12508 5.01736 8.12508 4.75C8.12508 3.53472 8.55043 2.50174 9.40112 1.65104C10.2518 0.800347 11.2848 0.375 12.5001 0.375C13.7154 0.375 14.7483 0.800347 15.599 1.65104C16.4497 2.50174 16.8751 3.53472 16.8751 4.75C16.8751 5.01736 16.8508 5.26649 16.8022 5.4974C16.7536 5.7283 16.6928 5.96528 16.6199 6.20833Z" fill="#D5B76E"/>
</svg>
